ffmpeg started on 2025-05-05 at 10:34:03
Report written to "D:\Convert\FFMetrics\reports\ssim_report-6.txt"
Log level: 32
Command line:
ffmpeg -hide_banner -nostdin -i "G:\\\xc0\xed\xe8\xec\xe5\\\xce\xed\xe3\xee\xe8\xed\xe3\xe8\\!_35_\xcb\xe5\xf2\xee_2024\\JamClub-1\\\xcb\xfe\xe4\xe8 \xef\xee\xe4\xe7\xe5\xec\xe5\xeb\xfc\xff\\JamClub_Dungeon_no_Naka_no_Hito_07_1080p_HEVC.mkv" -i "G:\\\xc0\xed\xe8\xec\xe5\\\xce\xed\xe3\xee\xe8\xed\xe3\xe8\\!_35_\xcb\xe5\xf2\xee_2024\\JamClub-1\\\xcb\xfe\xe4\xe8 \xef\xee\xe4\xe7\xe5\xec\xe5\xeb\xfc\xff\\JamClub_Dungeon_no_Naka_no_Hito_07_1080p.mp4" -lavfi "[0:v]settb=AVTB,setpts=PTS-STARTPTS,format=pix_fmts=yuv420p10,fps=24000/1001,scale=1920:1080:flags=bicubic[main];[1:v]settb=AVTB,setpts=PTS-STARTPTS,format=pix_fmts=yuv420p,fps=24000/1001,scale=1920:1080:flags=bicubic[ref];[main][ref]ssim=eof_action=endall:stats_file='D\\:/Convert/FFMetrics/logs/ssim_logfile-6.txt'" -f null -
Input #0, matroska,webm, from 'G:\Аниме\Онгоинги\!_35_Лето_2024\JamClub-1\Люди подземелья\JamClub_Dungeon_no_Naka_no_Hito_07_1080p_HEVC.mkv':
  Metadata:
    COMPATIBLE_BRANDS: isomiso2avc1mp41
    MAJOR_BRAND     : isom
    MINOR_VERSION   : 512
    ENCODER         : Lavf61.7.100
  Duration: 00:24:51.71, start: -0.021000, bitrate: 1095 kb/s
  Stream #0:0: Video: hevc (Main 10), yuv420p10le(tv, bt709, progressive), 1920x1080 [SAR 1:1 DAR 16:9], 23.98 fps, 23.98 tbr, 1k tbn (default)
      Metadata:
        HANDLER_NAME    : VideoHandler
        VENDOR_ID       : [0][0][0][0]
        ENCODER         : Lavc61.19.100 libx265
        BPS             : 897721
        DURATION        : 00:24:51.614708333
        NUMBER_OF_FRAMES: 35763
        NUMBER_OF_BYTES : 167381787
        _STATISTICS_WRITING_APP: mkvpropedit v66.0.0 ('Josie') 64-bit
        _STATISTICS_WRITING_DATE_UTC: 2025-05-04 13:58:42
        _STATISTICS_TAGS: BPS DURATION NUMBER_OF_FRAMES NUMBER_OF_BYTES
  Stream #0:1(eng): Audio: aac (LC), 48000 Hz, stereo, fltp (default)
      Metadata:
        HANDLER_NAME    : SoundHandler
        VENDOR_ID       : [0][0][0][0]
        ENCODER         : Lavc61.19.100 aac
        BPS             : 193978
        DURATION        : 00:24:51.693000000
        NUMBER_OF_FRAMES: 69924
        NUMBER_OF_BYTES : 36169518
        _STATISTICS_WRITING_APP: mkvpropedit v66.0.0 ('Josie') 64-bit
        _STATISTICS_WRITING_DATE_UTC: 2025-05-04 13:58:42
        _STATISTICS_TAGS: BPS DURATION NUMBER_OF_FRAMES NUMBER_OF_BYTES
Input #1, mov,mp4,m4a,3gp,3g2,mj2, from 'G:\Аниме\Онгоинги\!_35_Лето_2024\JamClub-1\Люди подземелья\JamClub_Dungeon_no_Naka_no_Hito_07_1080p.mp4':
  Metadata:
    major_brand     : isom
    minor_version   : 512
    compatible_brands: isomiso2avc1mp41
    encoder         : Lavf60.16.100
  Duration: 00:24:51.69, start: 0.000000, bitrate: 3767 kb/s
  Stream #1:0[0x1](und): Video: h264 (High) (avc1 / 0x31637661), yuv420p(tv, bt709, progressive), 1920x1080 [SAR 1:1 DAR 16:9], 3569 kb/s, 23.98 fps, 23.98 tbr, 90k tbn (default)
      Metadata:
        handler_name    : VideoHandler
        vendor_id       : [0][0][0][0]
  Stream #1:1[0x2](eng): Audio: aac (LC) (mp4a / 0x6134706D), 48000 Hz, stereo, fltp, 191 kb/s (default)
      Metadata:
        handler_name    : SoundHandler
        vendor_id       : [0][0][0][0]
Stream mapping:
  Stream #0:0 (hevc) -> settb:default
  Stream #1:0 (h264) -> settb:default
  ssim:default -> Stream #0:0 (wrapped_avframe)
  Stream #0:1 -> #0:1 (aac (native) -> pcm_s16le (native))
Output #0, null, to 'pipe:':
  Metadata:
    COMPATIBLE_BRANDS: isomiso2avc1mp41
    MAJOR_BRAND     : isom
    MINOR_VERSION   : 512
    encoder         : Lavf61.7.100
  Stream #0:0: Video: wrapped_avframe, yuv420p10le(tv, bt709, progressive), 1920x1080 [SAR 1:1 DAR 16:9], q=2-31, 200 kb/s, 23.98 fps, 23.98 tbn
      Metadata:
        encoder         : Lavc61.19.100 wrapped_avframe
  Stream #0:1(eng): Audio: pcm_s16le, 48000 Hz, stereo, s16, 1536 kb/s (default)
      Metadata:
        HANDLER_NAME    : SoundHandler
        VENDOR_ID       : [0][0][0][0]
        _STATISTICS_TAGS: BPS DURATION NUMBER_OF_FRAMES NUMBER_OF_BYTES
        BPS             : 193978
        DURATION        : 00:24:51.693000000
        NUMBER_OF_FRAMES: 69924
        NUMBER_OF_BYTES : 36169518
        _STATISTICS_WRITING_APP: mkvpropedit v66.0.0 ('Josie') 64-bit
        _STATISTICS_WRITING_DATE_UTC: 2025-05-04 13:58:42
        encoder         : Lavc61.19.100 pcm_s16le
frame=  118 fps=0.0 q=-0.0 size=N/A time=00:00:04.92 bitrate=N/A speed=9.49x    frame=  280 fps=269 q=-0.0 size=N/A time=00:00:11.67 bitrate=N/A speed=11.2x    frame=  482 fps=309 q=-0.0 size=N/A time=00:00:20.10 bitrate=N/A speed=12.9x    frame=  689 fps=333 q=-0.0 size=N/A time=00:00:28.73 bitrate=N/A speed=13.9x    frame=  930 fps=359 q=-0.0 size=N/A time=00:00:38.78 bitrate=N/A speed=  15x    frame= 1156 fps=373 q=-0.0 size=N/A time=00:00:48.21 bitrate=N/A speed=15.5x    frame= 1426 fps=393 q=-0.0 size=N/A time=00:00:59.47 bitrate=N/A speed=16.4x    frame= 1688 fps=408 q=-0.0 size=N/A time=00:01:10.40 bitrate=N/A speed=  17x    frame= 1953 fps=419 q=-0.0 size=N/A time=00:01:21.45 bitrate=N/A speed=17.5x    frame= 2192 fps=425 q=-0.0 size=N/A time=00:01:31.42 bitrate=N/A speed=17.7x    frame= 2401 fps=423 q=-0.0 size=N/A time=00:01:40.14 bitrate=N/A speed=17.6x    frame= 2593 fps=418 q=-0.0 size=N/A time=00:01:48.14 bitrate=N/A speed=17.4x    frame= 2811 fps=419 q=-0.0 size=N/A time=00:01:57.24 bitrate=N/A speed=17.5x    frame= 3022 fps=418 q=-0.0 size=N/A time=00:02:06.04 bitrate=N/A speed=17.4x    frame= 3244 fps=419 q=-0.0 size=N/A time=00:02:15.30 bitrate=N/A speed=17.5x    frame= 3436 fps=416 q=-0.0 size=N/A time=00:02:23.30 bitrate=N/A speed=17.3x    frame= 3597 fps=410 q=-0.0 size=N/A time=00:02:30.02 bitrate=N/A speed=17.1x    frame= 3792 fps=408 q=-0.0 size=N/A time=00:02:38.15 bitrate=N/A speed=  17x    frame= 4029 fps=411 q=-0.0 size=N/A time=00:02:48.04 bitrate=N/A speed=17.1x    frame= 4286 fps=415 q=-0.0 size=N/A time=00:02:58.76 bitrate=N/A speed=17.3x    frame= 4537 fps=418 q=-0.0 size=N/A time=00:03:09.23 bitrate=N/A speed=17.5x    frame= 4805 fps=423 q=-0.0 size=N/A time=00:03:20.40 bitrate=N/A speed=17.7x    frame= 5080 fps=428 q=-0.0 size=N/A time=00:03:31.87 bitrate=N/A speed=17.8x    frame= 5352 fps=432 q=-0.0 size=N/A time=00:03:43.22 bitrate=N/A speed=  18x    frame= 5630 fps=436 q=-0.0 size=N/A time=00:03:54.81 bitrate=N/A speed=18.2x    frame= 5899 fps=440 q=-0.0 size=N/A time=00:04:06.03 bitrate=N/A speed=18.3x    frame= 6185 fps=444 q=-0.0 size=N/A time=00:04:17.96 bitrate=N/A speed=18.5x    frame= 6444 fps=446 q=-0.0 size=N/A time=00:04:28.76 bitrate=N/A speed=18.6x    frame= 6710 fps=448 q=-0.0 size=N/A time=00:04:39.86 bitrate=N/A speed=18.7x    frame= 6978 fps=451 q=-0.0 size=N/A time=00:04:51.04 bitrate=N/A speed=18.8x    frame= 7243 fps=453 q=-0.0 size=N/A time=00:05:02.09 bitrate=N/A speed=18.9x    frame= 7488 fps=454 q=-0.0 size=N/A time=00:05:12.31 bitrate=N/A speed=18.9x    frame= 7754 fps=456 q=-0.0 size=N/A time=00:05:23.40 bitrate=N/A speed=  19x    frame= 8004 fps=456 q=-0.0 size=N/A time=00:05:33.83 bitrate=N/A speed=  19x    frame= 8274 fps=458 q=-0.0 size=N/A time=00:05:45.09 bitrate=N/A speed=19.1x    frame= 8534 fps=459 q=-0.0 size=N/A time=00:05:55.93 bitrate=N/A speed=19.2x    frame= 8741 fps=458 q=-0.0 size=N/A time=00:06:04.57 bitrate=N/A speed=19.1x    frame= 8983 fps=458 q=-0.0 size=N/A time=00:06:14.66 bitrate=N/A speed=19.1x    frame= 9233 fps=459 q=-0.0 size=N/A time=00:06:25.09 bitrate=N/A speed=19.1x    frame= 9513 fps=461 q=-0.0 size=N/A time=00:06:36.77 bitrate=N/A speed=19.2x    frame= 9780 fps=463 q=-0.0 size=N/A time=00:06:47.90 bitrate=N/A speed=19.3x    frame=10027 fps=463 q=-0.0 size=N/A time=00:06:58.20 bitrate=N/A speed=19.3x    frame=10285 fps=464 q=-0.0 size=N/A time=00:07:08.97 bitrate=N/A speed=19.3x    frame=10516 fps=463 q=-0.0 size=N/A time=00:07:18.60 bitrate=N/A speed=19.3x    frame=10757 fps=463 q=-0.0 size=N/A time=00:07:28.65 bitrate=N/A speed=19.3x    frame=11028 fps=465 q=-0.0 size=N/A time=00:07:39.95 bitrate=N/A speed=19.4x    frame=11297 fps=466 q=-0.0 size=N/A time=00:07:51.17 bitrate=N/A speed=19.4x    frame=11559 fps=467 q=-0.0 size=N/A time=00:08:02.10 bitrate=N/A speed=19.5x    frame=11823 fps=468 q=-0.0 size=N/A time=00:08:13.11 bitrate=N/A speed=19.5x    frame=12088 fps=469 q=-0.0 size=N/A time=00:08:24.17 bitrate=N/A speed=19.5x    frame=12373 fps=470 q=-0.0 size=N/A time=00:08:36.05 bitrate=N/A speed=19.6x    frame=12636 fps=471 q=-0.0 size=N/A time=00:08:47.02 bitrate=N/A speed=19.7x    frame=12898 fps=472 q=-0.0 size=N/A time=00:08:57.95 bitrate=N/A speed=19.7x    frame=13176 fps=473 q=-0.0 size=N/A time=00:09:09.54 bitrate=N/A speed=19.7x    frame=13454 fps=474 q=-0.0 size=N/A time=00:09:21.14 bitrate=N/A speed=19.8x    frame=13702 fps=474 q=-0.0 size=N/A time=00:09:31.48 bitrate=N/A speed=19.8x    frame=13969 fps=475 q=-0.0 size=N/A time=00:09:42.62 bitrate=N/A speed=19.8x    frame=14208 fps=475 q=-0.0 size=N/A time=00:09:52.59 bitrate=N/A speed=19.8x    frame=14477 fps=475 q=-0.0 size=N/A time=00:10:03.81 bitrate=N/A speed=19.8x    frame=14741 fps=476 q=-0.0 size=N/A time=00:10:14.82 bitrate=N/A speed=19.9x    frame=15016 fps=477 q=-0.0 size=N/A time=00:10:26.29 bitrate=N/A speed=19.9x    frame=15267 fps=477 q=-0.0 size=N/A time=00:10:36.76 bitrate=N/A speed=19.9x    frame=15521 fps=477 q=-0.0 size=N/A time=00:10:47.35 bitrate=N/A speed=19.9x    frame=15769 fps=478 q=-0.0 size=N/A time=00:10:57.69 bitrate=N/A speed=19.9x    frame=16022 fps=478 q=-0.0 size=N/A time=00:11:08.25 bitrate=N/A speed=19.9x    frame=16287 fps=478 q=-0.0 size=N/A time=00:11:19.30 bitrate=N/A speed=19.9x    frame=16561 fps=479 q=-0.0 size=N/A time=00:11:30.73 bitrate=N/A speed=  20x    frame=16808 fps=479 q=-0.0 size=N/A time=00:11:41.03 bitrate=N/A speed=  20x    frame=17073 fps=479 q=-0.0 size=N/A time=00:11:52.08 bitrate=N/A speed=  20x    frame=17328 fps=480 q=-0.0 size=N/A time=00:12:02.72 bitrate=N/A speed=  20x    frame=17593 fps=480 q=-0.0 size=N/A time=00:12:13.77 bitrate=N/A speed=  20x    frame=17857 fps=481 q=-0.0 size=N/A time=00:12:24.78 bitrate=N/A speed=  20x    frame=18118 fps=481 q=-0.0 size=N/A time=00:12:35.67 bitrate=N/A speed=20.1x    frame=18384 fps=481 q=-0.0 size=N/A time=00:12:46.76 bitrate=N/A speed=20.1x    frame=18653 fps=482 q=-0.0 size=N/A time=00:12:57.98 bitrate=N/A speed=20.1x    frame=18920 fps=483 q=-0.0 size=N/A time=00:13:09.12 bitrate=N/A speed=20.1x    frame=19189 fps=483 q=-0.0 size=N/A time=00:13:20.34 bitrate=N/A speed=20.1x    frame=19444 fps=483 q=-0.0 size=N/A time=00:13:30.97 bitrate=N/A speed=20.2x    frame=19713 fps=484 q=-0.0 size=N/A time=00:13:42.19 bitrate=N/A speed=20.2x    frame=19956 fps=484 q=-0.0 size=N/A time=00:13:52.33 bitrate=N/A speed=20.2x    frame=20222 fps=484 q=-0.0 size=N/A time=00:14:03.42 bitrate=N/A speed=20.2x    frame=20466 fps=484 q=-0.0 size=N/A time=00:14:13.60 bitrate=N/A speed=20.2x    frame=20727 fps=484 q=-0.0 size=N/A time=00:14:24.48 bitrate=N/A speed=20.2x    frame=20992 fps=484 q=-0.0 size=N/A time=00:14:35.54 bitrate=N/A speed=20.2x    frame=21253 fps=485 q=-0.0 size=N/A time=00:14:46.42 bitrate=N/A speed=20.2x    frame=21508 fps=485 q=-0.0 size=N/A time=00:14:57.06 bitrate=N/A speed=20.2x    frame=21776 fps=485 q=-0.0 size=N/A time=00:15:08.24 bitrate=N/A speed=20.2x    frame=22027 fps=485 q=-0.0 size=N/A time=00:15:18.70 bitrate=N/A speed=20.2x    frame=22312 fps=486 q=-0.0 size=N/A time=00:15:30.59 bitrate=N/A speed=20.3x    frame=22596 fps=487 q=-0.0 size=N/A time=00:15:42.44 bitrate=N/A speed=20.3x    frame=22829 fps=486 q=-0.0 size=N/A time=00:15:52.15 bitrate=N/A speed=20.3x    frame=23099 fps=487 q=-0.0 size=N/A time=00:16:03.42 bitrate=N/A speed=20.3x    frame=23346 fps=487 q=-0.0 size=N/A time=00:16:13.72 bitrate=N/A speed=20.3x    frame=23602 fps=487 q=-0.0 size=N/A time=00:16:24.40 bitrate=N/A speed=20.3x    frame=23860 fps=487 q=-0.0 size=N/A time=00:16:35.16 bitrate=N/A speed=20.3x    frame=24132 fps=487 q=-0.0 size=N/A time=00:16:46.50 bitrate=N/A speed=20.3x    frame=24391 fps=487 q=-0.0 size=N/A time=00:16:57.30 bitrate=N/A speed=20.3x    frame=24636 fps=487 q=-0.0 size=N/A time=00:17:07.52 bitrate=N/A speed=20.3x    frame=24870 fps=487 q=-0.0 size=N/A time=00:17:17.28 bitrate=N/A speed=20.3x    frame=25129 fps=487 q=-0.0 size=N/A time=00:17:28.08 bitrate=N/A speed=20.3x    frame=25308 fps=486 q=-0.0 size=N/A time=00:17:35.55 bitrate=N/A speed=20.3x    frame=25494 fps=484 q=-0.0 size=N/A time=00:17:43.31 bitrate=N/A speed=20.2x    frame=25700 fps=484 q=-0.0 size=N/A time=00:17:51.90 bitrate=N/A speed=20.2x    frame=25952 fps=484 q=-0.0 size=N/A time=00:18:02.41 bitrate=N/A speed=20.2x    frame=26207 fps=484 q=-0.0 size=N/A time=00:18:13.05 bitrate=N/A speed=20.2x    frame=26442 fps=484 q=-0.0 size=N/A time=00:18:22.85 bitrate=N/A speed=20.2x    frame=26684 fps=483 q=-0.0 size=N/A time=00:18:32.94 bitrate=N/A speed=20.2x    frame=26921 fps=483 q=-0.0 size=N/A time=00:18:42.83 bitrate=N/A speed=20.2x    frame=27121 fps=482 q=-0.0 size=N/A time=00:18:51.17 bitrate=N/A speed=20.1x    frame=27360 fps=482 q=-0.0 size=N/A time=00:19:01.14 bitrate=N/A speed=20.1x    frame=27622 fps=482 q=-0.0 size=N/A time=00:19:12.06 bitrate=N/A speed=20.1x    frame=27892 fps=483 q=-0.0 size=N/A time=00:19:23.32 bitrate=N/A speed=20.1x    frame=28120 fps=482 q=-0.0 size=N/A time=00:19:32.83 bitrate=N/A speed=20.1x    frame=28380 fps=483 q=-0.0 size=N/A time=00:19:43.68 bitrate=N/A speed=20.1x    frame=28619 fps=482 q=-0.0 size=N/A time=00:19:53.65 bitrate=N/A speed=20.1x    frame=28893 fps=483 q=-0.0 size=N/A time=00:20:05.07 bitrate=N/A speed=20.1x    frame=29156 fps=483 q=-0.0 size=N/A time=00:20:16.04 bitrate=N/A speed=20.2x    frame=29419 fps=483 q=-0.0 size=N/A time=00:20:27.01 bitrate=N/A speed=20.2x    frame=29697 fps=484 q=-0.0 size=N/A time=00:20:38.61 bitrate=N/A speed=20.2x    frame=29947 fps=484 q=-0.0 size=N/A time=00:20:49.03 bitrate=N/A speed=20.2x    frame=30204 fps=484 q=-0.0 size=N/A time=00:20:59.75 bitrate=N/A speed=20.2x    frame=30460 fps=484 q=-0.0 size=N/A time=00:21:10.43 bitrate=N/A speed=20.2x    frame=30736 fps=484 q=-0.0 size=N/A time=00:21:21.94 bitrate=N/A speed=20.2x    frame=30986 fps=484 q=-0.0 size=N/A time=00:21:32.37 bitrate=N/A speed=20.2x    frame=31236 fps=484 q=-0.0 size=N/A time=00:21:42.80 bitrate=N/A speed=20.2x    frame=31479 fps=484 q=-0.0 size=N/A time=00:21:52.93 bitrate=N/A speed=20.2x    frame=31703 fps=484 q=-0.0 size=N/A time=00:22:02.27 bitrate=N/A speed=20.2x    frame=31971 fps=484 q=-0.0 size=N/A time=00:22:13.45 bitrate=N/A speed=20.2x    frame=32229 fps=484 q=-0.0 size=N/A time=00:22:24.21 bitrate=N/A speed=20.2x    frame=32481 fps=484 q=-0.0 size=N/A time=00:22:34.72 bitrate=N/A speed=20.2x    frame=32753 fps=485 q=-0.0 size=N/A time=00:22:46.07 bitrate=N/A speed=20.2x    frame=33013 fps=485 q=-0.0 size=N/A time=00:22:56.91 bitrate=N/A speed=20.2x    frame=33255 fps=485 q=-0.0 size=N/A time=00:23:07.01 bitrate=N/A speed=20.2x    frame=33438 fps=484 q=-0.0 size=N/A time=00:23:14.64 bitrate=N/A speed=20.2x    frame=33585 fps=482 q=-0.0 size=N/A time=00:23:20.77 bitrate=N/A speed=20.1x    frame=33754 fps=481 q=-0.0 size=N/A time=00:23:27.82 bitrate=N/A speed=20.1x    frame=33918 fps=480 q=-0.0 size=N/A time=00:23:34.66 bitrate=N/A speed=  20x    frame=34099 fps=479 q=-0.0 size=N/A time=00:23:42.21 bitrate=N/A speed=  20x    frame=34262 fps=478 q=-0.0 size=N/A time=00:23:49.01 bitrate=N/A speed=19.9x    frame=34439 fps=477 q=-0.0 size=N/A time=00:23:56.39 bitrate=N/A speed=19.9x    frame=34585 fps=476 q=-0.0 size=N/A time=00:24:02.48 bitrate=N/A speed=19.8x    frame=34744 fps=474 q=-0.0 size=N/A time=00:24:09.11 bitrate=N/A speed=19.8x    frame=34937 fps=474 q=-0.0 size=N/A time=00:24:17.16 bitrate=N/A speed=19.8x    frame=35178 fps=474 q=-0.0 size=N/A time=00:24:27.21 bitrate=N/A speed=19.8x    frame=35426 fps=474 q=-0.0 size=N/A time=00:24:37.55 bitrate=N/A speed=19.8x    frame=35631 fps=473 q=-0.0 size=N/A time=00:24:46.10 bitrate=N/A speed=19.7x    [Parsed_ssim_10 @ 00000238a3843000] SSIM Y:0.996389 (24.424245) U:0.995345 (23.320604) V:0.995266 (23.247526) All:0.996028 (24.009964)
[out#0/null @ 00000238a33b0f40] video:15367KiB audio:279696KiB subtitle:0KiB other streams:0KiB global headers:0KiB muxing overhead: unknown
frame=35763 fps=473 q=-0.0 Lsize=N/A time=00:24:51.61 bitrate=N/A speed=19.7x    
